<svg xmlns="http://www.w3.org/2000/svg" viewBox="0 0 64 64" width="64" height="64">
  <circle cx="32" cy="32" r="32" fill="#4A90E2"/>
  <g fill="#fff">
    <path d="M20 28a8 8 0 1 1 8-8 8 8 0 0 1-8 8zm0-14a6 6 0 1 0 6 6 6 6 0 0 0-6-6z"/>
    <circle cx="20" cy="20" r="1.5"/>
    <circle cx="24" cy="20" r="1.5"/>
    <circle cx="22" cy="23" r="1.5"/>
    <path d="M36 40a8 8 0 1 1 8-8 8 8 0 0 1-8 8zm0-14a6 6 0 1 0 6 6 6 6 0 0 0-6-6z"/>
    <circle cx="36" cy="32" r="1.5"/>
    <circle cx="40" cy="32" r="1.5"/>
    <circle cx="38" cy="35" r="1.5"/>
  </g>
</svg>
